<?xml version='1.0' encoding='utf-8'?>
<svg xmlns="http://www.w3.org/2000/svg" width="480" height="120" viewBox="0 0 480 120" fill="none">
<path d="M49 68.0144C49.0001 64.7837 49.9782 61.6291 51.8052 58.9671C53.6321 56.3051 56.222 54.261 59.2328 53.1048C62.2436 51.9486 65.5335 51.7346 68.6682 52.4912C71.8029 53.2478 74.6348 54.9393 76.7898 57.3423C76.9416 57.5049 77.1251 57.6346 77.329 57.7232C77.5328 57.8118 77.7527 57.8576 77.9749 57.8576C78.1971 57.8576 78.417 57.8118 78.6208 57.7232C78.8247 57.6346 79.0082 57.5049 79.16 57.3423C81.3083 54.9237 84.1408 53.2179 87.2806 52.4522C90.4203 51.6864 93.7184 51.8969 96.7358 53.0557C99.7532 54.2145 102.347 56.2665 104.171 58.9388C105.996 61.611 106.965 64.7766 106.95 68.0144C106.95 74.6626 102.604 79.6271 98.2573 83.9818L82.3443 99.4064C81.8044 100.028 81.1388 100.527 80.3916 100.871C79.6443 101.214 78.8327 101.395 78.0105 101.4C77.1883 101.405 76.3745 101.235 75.623 100.901C74.8715 100.567 74.1996 100.076 73.6519 99.4616L57.6925 83.9818C53.3462 79.6271 49 74.6917 49 68.0144Z" stroke="#1A73E8" stroke-width="4.75095" stroke-linecap="round" stroke-linejoin="round"/>
<path d="M121.591 58.8656C122.402 58.8968 123.463 58.928 124.774 58.9592C126.084 58.9904 127.394 59.006 128.705 59.006C130.202 59.006 131.653 58.9904 133.057 58.9592C134.461 58.928 135.46 58.9124 136.052 58.9124C139.921 58.9124 142.807 59.5988 144.71 60.9716C146.645 62.3444 147.612 64.1072 147.612 66.26C147.612 67.352 147.284 68.4596 146.629 69.5828C145.974 70.706 144.96 71.7044 143.587 72.578C142.214 73.4516 140.436 74.0912 138.252 74.4968V74.5904C141.185 74.8088 143.509 75.3392 145.225 76.1816C146.941 77.024 148.174 78.038 148.922 79.2236C149.671 80.4092 150.046 81.6416 150.046 82.9208C150.046 84.8864 149.531 86.54 148.501 87.8816C147.472 89.2232 145.99 90.2528 144.055 90.9704C142.121 91.6568 139.812 92 137.129 92C136.38 92 135.304 91.9844 133.9 91.9532C132.496 91.8908 130.795 91.8596 128.798 91.8596C127.426 91.8596 126.084 91.8752 124.774 91.9064C123.463 91.9064 122.402 91.9376 121.591 92V91.064C122.59 91.0016 123.338 90.8768 123.838 90.6896C124.337 90.5024 124.664 90.128 124.82 89.5664C125.008 89.0048 125.101 88.1624 125.101 87.0392V63.8264C125.101 62.672 125.008 61.8296 124.82 61.2992C124.664 60.7376 124.321 60.3632 123.791 60.176C123.292 59.9576 122.558 59.8328 121.591 59.8016V58.8656ZM135.444 59.8016C134.227 59.8016 133.432 60.0668 133.057 60.5972C132.714 61.1276 132.542 62.204 132.542 63.8264V87.0392C132.542 88.1312 132.62 88.958 132.776 89.5196C132.964 90.0812 133.276 90.4556 133.712 90.6428C134.18 90.83 134.867 90.9236 135.772 90.9236C138.018 90.9236 139.656 90.2216 140.686 88.8176C141.746 87.3824 142.277 85.3544 142.277 82.7336C142.277 80.3312 141.668 78.4748 140.452 77.1644C139.266 75.854 137.285 75.1988 134.508 75.1988H130.53V74.4032H134.555C136.021 74.4032 137.144 74.06 137.924 73.3736C138.704 72.656 139.25 71.72 139.562 70.5656C139.874 69.38 140.03 68.1164 140.03 66.7748C140.03 64.466 139.672 62.7344 138.954 61.58C138.236 60.3944 137.066 59.8016 135.444 59.8016Z" fill="#202124"/>
<path d="M188.459 58.3191C190.3 58.3277 191.718 58.5371 192.715 58.9474C193.711 59.3264 194.568 59.736 195.283 60.1762C195.657 60.3963 195.952 60.5693 196.17 60.6951C196.419 60.7899 196.653 60.8378 196.871 60.8388C197.183 60.8403 197.402 60.6697 197.529 60.3271C197.686 59.9846 197.814 59.4704 197.91 58.7844L198.987 58.7895C198.953 59.3821 198.903 60.0995 198.836 60.9416C198.801 61.7526 198.765 62.8289 198.728 64.1703C198.721 65.5119 198.713 67.2747 198.703 69.4587L197.627 69.4536C197.509 67.8307 197.142 66.2533 196.526 64.7216C195.909 63.1899 195.025 61.9378 193.875 60.9652C192.757 59.9616 191.371 59.4559 189.717 59.4482C188.22 59.4412 186.985 59.8566 186.014 60.6945C185.043 61.5324 184.554 62.7001 184.547 64.1977C184.541 65.4457 184.848 66.5235 185.468 67.4312C186.088 68.3077 186.989 69.1699 188.17 70.0179C189.383 70.8659 190.845 71.8868 192.555 73.0804C194.048 74.0546 195.385 75.028 196.566 76.0007C197.748 76.9735 198.694 78.0699 199.406 79.29C200.118 80.5102 200.47 81.9626 200.462 83.6474C200.452 85.7066 199.898 87.4044 198.8 88.7409C197.733 90.0776 196.324 91.085 194.574 91.7632C192.824 92.4102 190.903 92.7289 188.813 92.7191C186.879 92.7101 185.335 92.5157 184.183 92.1359C183.03 91.7561 182.065 91.3616 181.286 90.9524C180.602 90.5124 180.073 90.2915 179.698 90.2897C179.386 90.2883 179.152 90.4588 178.994 90.8012C178.868 91.1439 178.756 91.6581 178.659 92.3441L177.583 92.3391C177.649 91.5906 177.684 90.7171 177.689 89.7187C177.724 88.7205 177.746 87.4258 177.754 85.8346C177.792 84.2124 177.817 82.1689 177.829 79.7041L178.905 79.7091C179.021 81.7689 179.355 83.7049 179.908 85.5171C180.492 87.2982 181.375 88.7375 182.555 89.8351C183.767 90.9327 185.371 91.4862 187.368 91.4956C188.46 91.5007 189.428 91.318 190.272 90.9475C191.148 90.546 191.852 89.9565 192.386 89.179C192.921 88.4015 193.19 87.4355 193.196 86.2811C193.202 84.9707 192.895 83.8305 192.276 82.8604C191.687 81.8904 190.865 80.9818 189.808 80.1344C188.782 79.2872 187.585 78.4236 186.216 77.5436C184.754 76.5696 183.386 75.596 182.112 74.6228C180.837 73.6497 179.812 72.5373 179.038 71.2856C178.295 70.0342 177.928 68.5504 177.936 66.8344C177.945 64.8689 178.436 63.2643 179.409 62.0209C180.414 60.7463 181.713 59.8164 183.307 59.231C184.932 58.6146 186.649 58.3106 188.459 58.3191Z" fill="#202124"/>
</svg>