<?xml version='1.0' encoding='utf-8'?>
<svg xmlns="http://www.w3.org/2000/svg" width="180" height="59" viewBox="0 0 180 59" fill="none">
<path d="M1.5912 16.8656C2.4024 16.8968 3.4632 16.928 4.7736 16.9592C6.084 16.9904 7.394 17.006 8.705 17.006C10.202 17.006 11.653 16.9904 13.057 16.9592C14.461 16.928 15.46 16.9124 16.052 16.9124C19.921 16.9124 22.807 17.5988 24.71 18.9716C26.645 20.3444 27.612 22.1072 27.612 24.26C27.612 25.352 27.284 26.4596 26.629 27.5828C25.974 28.706 24.96 29.7044 23.587 30.578C22.214 31.4516 20.436 32.0912 18.252 32.4968V32.5904C21.185 32.8088 23.509 33.3392 25.225 34.1816C26.941 35.024 28.174 36.038 28.922 37.2236C29.671 38.4092 30.046 39.6416 30.046 40.9208C30.046 42.8864 29.531 44.54 28.501 45.8816C27.472 47.2232 25.99 48.2528 24.055 48.9704C22.121 49.6568 19.812 50 17.129 50C16.38 50 15.304 49.9844 13.9 49.9532C12.496 49.8908 10.795 49.8596 8.798 49.8596C7.426 49.8596 6.084 49.8752 4.774 49.9064C3.463 49.9064 2.402 49.9376 1.591 50V49.064C2.59 49.0016 3.338 48.8768 3.838 48.6896C4.337 48.5024 4.664 48.128 4.82 47.5664C5.008 47.0048 5.101 46.1624 5.101 45.0392V21.8264C5.101 20.672 5.008 19.8296 4.82 19.2992C4.664 18.7376 4.321 18.3632 3.791 18.176C3.292 17.9576 2.558 17.8328 1.591 17.8016V16.8656ZM15.444 17.8016C14.227 17.8016 13.432 18.0668 13.057 18.5972C12.714 19.1276 12.542 20.204 12.542 21.8264V45.0392C12.542 46.1312 12.62 46.958 12.776 47.5196C12.964 48.0812 13.276 48.4556 13.712 48.6428C14.18 48.83 14.867 48.9236 15.772 48.9236C18.018 48.9236 19.656 48.2216 20.686 46.8176C21.746 45.3824 22.277 43.3544 22.277 40.7336C22.277 38.3312 21.668 36.4748 20.452 35.1644C19.266 33.854 17.285 33.1988 14.508 33.1988H10.53V32.4032H14.555C16.021 32.4032 17.144 32.06 17.924 31.3736C18.704 30.656 19.25 29.72 19.562 28.5656C19.874 27.38 20.03 26.1164 20.03 24.7748C20.03 22.466 19.672 20.7344 18.954 19.58C18.236 18.3944 17.066 17.8016 15.444 17.8016Z" fill="#202124"/>
<path d="M55.459 16.3191C57.3 16.3277 58.718 16.5371 59.715 16.9474C60.711 17.3264 61.568 17.736 62.283 18.1762C62.657 18.3963 62.952 18.5693 63.17 18.6951C63.419 18.7899 63.653 18.8378 63.871 18.8388C64.183 18.8403 64.402 18.6697 64.529 18.3271C64.686 17.9846 64.814 17.4704 64.91 16.7844L65.987 16.7895C65.953 17.3821 65.903 18.0995 65.836 18.9416C65.801 19.7526 65.765 20.8289 65.728 22.1703C65.721 23.5119 65.713 25.2747 65.703 27.4587L64.627 27.4536C64.509 25.8307 64.142 24.2533 63.526 22.7216C62.909 21.1899 62.025 19.9378 60.875 18.9652C59.757 17.9616 58.371 17.4559 56.717 17.4482C55.22 17.4412 53.985 17.8566 53.014 18.6945C52.043 19.5324 51.554 20.7001 51.547 22.1977C51.541 23.4457 51.848 24.5235 52.468 25.4312C53.088 26.3077 53.989 27.1699 55.17 28.0179C56.383 28.8659 57.845 29.8868 59.555 31.0804C61.048 32.0546 62.385 33.028 63.566 34.0007C64.748 34.9735 65.694 36.0699 66.406 37.29C67.118 38.5102 67.47 39.9626 67.462 41.6474C67.452 43.7066 66.898 45.4044 65.8 46.7409C64.733 48.0776 63.324 49.085 61.574 49.7632C59.824 50.4102 57.903 50.7289 55.813 50.7191C53.879 50.7101 52.335 50.5157 51.183 50.1359C50.03 49.7561 49.065 49.3616 48.286 48.9524C47.602 48.5124 47.073 48.2915 46.698 48.2897C46.386 48.2883 46.152 48.4588 45.994 48.8012C45.868 49.1439 45.756 49.6581 45.659 50.3441L44.583 50.3391C44.649 49.5906 44.684 48.7171 44.689 47.7187C44.724 46.7205 44.746 45.4258 44.754 43.8346C44.792 42.2124 44.817 40.1689 44.829 37.7041L45.905 37.7091C46.021 39.7689 46.355 41.7049 46.908 43.5171C47.492 45.2982 48.375 46.7375 49.555 47.8351C50.767 48.9327 52.371 49.4862 54.368 49.4956C55.46 49.5007 56.428 49.318 57.272 48.9475C58.148 48.546 58.852 47.9565 59.386 47.179C59.921 46.4015 60.19 45.4355 60.196 44.2811C60.202 42.9707 59.895 41.8305 59.276 40.8604C58.687 39.8904 57.865 38.9818 56.808 38.1344C55.782 37.2872 54.585 36.4236 53.216 35.5436C51.754 34.5696 50.386 33.596 49.112 32.6228C47.837 31.6497 46.812 30.5373 46.038 29.2856C45.295 28.0342 44.928 26.5504 44.936 24.8344C44.945 22.8689 45.436 21.2643 46.409 20.0209C47.414 18.7463 48.713 17.8164 50.307 17.231C51.932 16.6146 53.649 16.3106 55.459 16.3191Z" fill="#202124"/>
</svg>