<?xml version='1.0' encoding='utf-8'?>
<svg xmlns="http://www.w3.org/2000/svg" width="63" height="55" viewBox="0 0 63 55" fill="none">
<path d="M2.37547 18.3898C2.37553 15.1592 3.35365 12.0046 5.18063 9.34257C7.00761 6.68059 9.59752 4.6365 12.6083 3.48029C15.619 2.32407 18.909 2.11012 22.0437 2.86669C25.1783 3.62325 28.0102 5.31475 30.1653 7.71777C30.3171 7.88039 30.5006 8.01003 30.7045 8.09867C30.9083 8.1873 31.1282 8.23303 31.3504 8.23303C31.5726 8.23303 31.7925 8.1873 31.9963 8.09867C32.2002 8.01003 32.3837 7.88039 32.5355 7.71777C34.6838 5.29913 37.5163 3.59342 40.6561 2.82766C43.7958 2.0619 47.0939 2.27241 50.1113 3.43118C53.1287 4.58994 55.7223 6.642 57.5469 9.31423C59.3716 11.9865 60.3407 15.1521 60.3253 18.3898C60.3253 25.0381 55.9791 30.0026 51.6328 34.3573L35.7198 49.7819C35.1799 50.4032 34.5142 50.9023 33.767 51.246C33.0198 51.5897 32.2082 51.7701 31.386 51.7754C30.5638 51.7806 29.7499 51.6104 28.9985 51.2762C28.247 50.9421 27.575 50.4515 27.0273 49.8371L11.0679 34.3573C6.72171 30.0026 2.37547 25.0672 2.37547 18.3898Z" stroke="#1A73E8" stroke-width="4.75095" stroke-linecap="round" stroke-linejoin="round"/>
</svg>